<svg xmlns="http://www.w3.org/2000/svg" viewBox="0 0 876.53 401.37"><defs><style>.cls-1{fill:none;stroke:#fff;stroke-miterlimit:10;}</style></defs><g id="Layer_2" data-name="Layer 2"><g id="Artboard_3_Journey_" data-name="Artboard 3(Journey)"><ellipse class="cls-1" cx="113.67" cy="298.11" rx="120.22" ry="56.68" transform="translate(-123.42 84.62) rotate(-27.13)"/><ellipse class="cls-1" cx="126.8" cy="291.39" rx="136.55" ry="66.38" transform="translate(-118.91 89.86) rotate(-27.13)"/><ellipse class="cls-1" cx="141.7" cy="283.16" rx="151.99" ry="75.71" transform="translate(-113.52 95.75) rotate(-27.13)"/><ellipse class="cls-1" cx="161.8" cy="272.86" rx="174.57" ry="85.75" transform="translate(-106.61 103.78) rotate(-27.13)"/><ellipse class="cls-1" cx="182.4" cy="262.9" rx="197.45" ry="94.94" transform="translate(-99.8 112.08) rotate(-27.13)"/><ellipse class="cls-1" cx="204.85" cy="249.85" rx="222.88" ry="107.22" transform="translate(-91.39 120.88) rotate(-27.13)"/><path class="cls-1" d="M6.48,351.47a146,146,0,0,0,25.79,25.91c27.6,21.46,107.27,66.91,461.18-84C854.13,139.67,873.12,49.09,875.63,17.18A132,132,0,0,0,875.85,0"/></g></g></svg>